# xmcd CD database file
#
# Track frame offsets:
#	150
#	21029
#	36873
#	63519
#	84384
#	100227
#
# Disc length: 1690 seconds
#
# Revision: 1
# Processed by: cddbd v1.5.2PL0 Copyright (c) Steve Scherf et al.
# Submitted via: CDex 1.70beta2
#
DISCID=42069806
DTITLE=SDN48 - 負け惜しみコングラチュレーション [TypeB]
DYEAR=2012
DGENRE=Blues
TTITLE0=負け惜しみコングラチュレーション
TTITLE1=クリクリ／ アンダーガールズA
TTITLE2=終わらないアンコール
TTITLE3=負け惜しみコングラチュレーション (off vocal)
TTITLE4=クリクリ (off vocal)
TTITLE5=終わらないアンコール (off vocal)
EXTD=YEAR: 2012
EXTT0=
EXTT1=
EXTT2=
EXTT3=
EXTT4=
EXTT5=
PLAYORDER=
